<mxfile host="65bd71144e">
    <diagram id="6hVav4VxkDgVvQ-maf_H" name="Page-1">
        <mxGraphModel dx="4140" dy="3633" grid="1" gridSize="10" guides="1" tooltips="1" connect="1" arrows="1" fold="1" page="1" pageScale="1" pageWidth="850" pageHeight="1100" math="0" shadow="0">
            <root>
                <mxCell id="0"/>
                <mxCell id="1" parent="0"/>
                <mxCell id="168" value="" style="rounded=0;whiteSpace=wrap;html=1;fontSize=20;fillColor=none;" parent="1" vertex="1">
                    <mxGeometry x="-780" y="-1765" width="1540" height="600" as="geometry"/>
                </mxCell>
                <mxCell id="26" value="&lt;font style=&quot;font-size: 14px;&quot;&gt;Os clientes utilizam essa tela para criar e atualizar as informações do produto. O sistema deve gerenciar as políticas que aplicam-se a diferentes marketplaces.&lt;br&gt;&lt;/font&gt;" style="rounded=0;whiteSpace=wrap;html=1;fillColor=#333C45;strokeColor=default;fontColor=#ffffff;" parent="1" vertex="1">
                    <mxGeometry x="-718" y="-1720" width="640" height="140" as="geometry"/>
                </mxCell>
                <mxCell id="27" value="Resumo do processo" style="text;html=1;align=center;verticalAlign=middle;resizable=0;points=[];autosize=1;strokeColor=none;fillColor=none;fontStyle=1" parent="1" vertex="1">
                    <mxGeometry x="-718" y="-1750" width="150" height="30" as="geometry"/>
                </mxCell>
                <mxCell id="28" value="" style="rounded=0;whiteSpace=wrap;html=1;fillColor=#333C45;strokeColor=default;fontColor=#ffffff;" parent="1" vertex="1">
                    <mxGeometry x="-718" y="-1550" width="640" height="180" as="geometry"/>
                </mxCell>
                <mxCell id="29" value="PRODUCT" style="whiteSpace=wrap;html=1;aspect=fixed;labelBackgroundColor=none;strokeColor=default;fillColor=#116891;fontColor=#ffffff;gradientColor=none;" parent="1" vertex="1">
                    <mxGeometry x="-686" y="-1525" width="130" height="130" as="geometry"/>
                </mxCell>
                <mxCell id="30" value="CATEGORY" style="whiteSpace=wrap;html=1;aspect=fixed;labelBackgroundColor=none;strokeColor=default;fillColor=#116891;fontColor=#ffffff;gradientColor=none;" parent="1" vertex="1">
                    <mxGeometry x="-386" y="-1525" width="130" height="130" as="geometry"/>
                </mxCell>
                <mxCell id="31" value="ATTRIBUTES" style="whiteSpace=wrap;html=1;aspect=fixed;labelBackgroundColor=none;strokeColor=default;fillColor=#116891;fontColor=#ffffff;gradientColor=none;" parent="1" vertex="1">
                    <mxGeometry x="-240" y="-1525" width="130" height="130" as="geometry"/>
                </mxCell>
                <mxCell id="32" value="&lt;ol&gt;&lt;li&gt;Gestão de informações como(preço, estoque, nome, sku, descrição, frete, variação)&lt;/li&gt;&lt;li&gt;Como esse produto é visto pelo marketplace/loja; (invariantes como estoque, preço, variação)&lt;/li&gt;&lt;li&gt;Como esse produto é visto pela variação?&lt;br&gt;&lt;/li&gt;&lt;/ol&gt;" style="rounded=0;whiteSpace=wrap;fillColor=#333C45;strokeColor=default;fontColor=#ffffff;align=left;verticalAlign=top;html=1;" parent="1" vertex="1">
                    <mxGeometry x="-718" y="-1320" width="640" height="140" as="geometry"/>
                </mxCell>
                <mxCell id="33" value="PRODUCT" style="text;html=1;align=center;verticalAlign=middle;resizable=0;points=[];autosize=1;strokeColor=none;fillColor=none;fontStyle=1" parent="1" vertex="1">
                    <mxGeometry x="-718" y="-1350" width="80" height="30" as="geometry"/>
                </mxCell>
                <mxCell id="34" value="VARIATION" style="whiteSpace=wrap;html=1;aspect=fixed;labelBackgroundColor=none;strokeColor=default;fillColor=#116891;fontColor=#ffffff;gradientColor=none;" parent="1" vertex="1">
                    <mxGeometry x="-536" y="-1525" width="130" height="130" as="geometry"/>
                </mxCell>
                <mxCell id="52" value="&lt;h1&gt;Domain description&lt;br&gt;&lt;/h1&gt;&lt;p&gt;O sistema permite o usuário criar dois tipos de produtos; base e variação. Para realizar o cadastro, as seguintes informações devem ser inseridas(nome, preço, sku). Com o produto criado, o usuário pode editar/adicionar o resto das informações.&lt;br&gt;&lt;/p&gt;" style="text;html=1;strokeColor=none;fillColor=none;spacing=5;spacingTop=-20;whiteSpace=wrap;overflow=hidden;rounded=0;" parent="1" vertex="1">
                    <mxGeometry x="10" y="-1535" width="250" height="160" as="geometry"/>
                </mxCell>
                <mxCell id="53" value="&lt;h1&gt;&amp;nbsp;&lt;br&gt;&lt;/h1&gt;&lt;p&gt;O produto base pode ou não ter variações, uma vez que tiver, ele nunca poderá ser uma variação no futuro por si só, caso não tiver, ele pode ser editado para ser uma variação e ser relacionado a outro produto base&lt;br&gt;&lt;/p&gt;" style="text;html=1;strokeColor=none;fillColor=none;spacing=5;spacingTop=-20;whiteSpace=wrap;overflow=hidden;rounded=0;" parent="1" vertex="1">
                    <mxGeometry x="300" y="-1535" width="250" height="160" as="geometry"/>
                </mxCell>
                <mxCell id="67" value="&lt;h1&gt;Devemos tratar a variação como algo independente do produto base?&amp;nbsp;&lt;br&gt;&lt;/h1&gt;&lt;p&gt;Quando um produto possui variações que também são tratadas como produtos&lt;br&gt; independentes, é importante analisar cuidadosamente o contexto e a &lt;br&gt;natureza das interações entre eles para determinar se devem ser tratados&lt;br&gt; como agregados ou entidades. Essa decisão afetará a consistência e a &lt;br&gt;gestão do sistema.&amp;nbsp;&lt;br&gt;&lt;/p&gt;&lt;p&gt;&lt;strong&gt;1. Agregado Produto com Variações:&amp;nbsp;&lt;/strong&gt;&lt;br&gt;&lt;/p&gt;Nesta abordagem, podemos considerar o Produto principal (com suas&amp;nbsp; &amp;nbsp; &amp;nbsp; &amp;nbsp; &amp;nbsp; &amp;nbsp; &amp;nbsp; &amp;nbsp; &amp;nbsp; &amp;nbsp; &amp;nbsp; &amp;nbsp; &amp;nbsp; &amp;nbsp; &amp;nbsp;&lt;br&gt;características específicas) e suas variações como agregado. O agregado &lt;br&gt;&quot;Produto com Variações&quot; representaria um conjunto lógico de produtos &lt;br&gt;relacionados, onde o Produto principal é o agregado raiz e suas &lt;br&gt;variações são os membros do agregado.&lt;br&gt;&lt;br&gt;&lt;strong&gt;2. Entidades Separadas:&lt;br&gt;&lt;/strong&gt;&lt;br&gt;Nesta abordagem, trataríamos o Produto principal e suas variações como &lt;br&gt;entidades independentes. Cada variação seria uma entidade separada com &lt;br&gt;suas próprias propriedades e informações, sem estar diretamente &lt;br&gt;relacionada ao Produto principal." style="text;html=1;strokeColor=none;fillColor=none;spacing=5;spacingTop=-20;whiteSpace=wrap;overflow=hidden;rounded=0;" parent="1" vertex="1">
                    <mxGeometry x="133" y="-580.62" width="800" height="367.81" as="geometry"/>
                </mxCell>
                <mxCell id="93" value="&lt;font style=&quot;font-size: 20px;&quot;&gt;DEFINITIONS&lt;/font&gt;" style="rounded=0;whiteSpace=wrap;html=1;fillColor=#f0a30a;fontColor=#000000;strokeColor=#BD7000;" parent="1" vertex="1">
                    <mxGeometry x="-790" y="-700" width="770" height="60" as="geometry"/>
                </mxCell>
                <mxCell id="127" value="Product Base" style="swimlane;whiteSpace=wrap;html=1;strokeColor=default;fontSize=16;fillColor=default;" parent="1" vertex="1">
                    <mxGeometry x="-746.5" y="-610" width="200" height="200" as="geometry">
                        <mxRectangle x="80" y="-240" width="180" height="30" as="alternateBounds"/>
                    </mxGeometry>
                </mxCell>
                <mxCell id="128" value="Um produto único principal no sistema.&amp;nbsp;" style="text;html=1;strokeColor=none;fillColor=none;align=left;verticalAlign=middle;whiteSpace=wrap;rounded=0;fontSize=16;" parent="127" vertex="1">
                    <mxGeometry y="30" width="200" height="40" as="geometry"/>
                </mxCell>
                <mxCell id="129" value="Product With_Variation" style="swimlane;whiteSpace=wrap;html=1;strokeColor=default;fontSize=16;fillColor=default;" parent="1" vertex="1">
                    <mxGeometry x="-506.5" y="-610" width="210" height="200" as="geometry">
                        <mxRectangle x="80" y="-240" width="180" height="30" as="alternateBounds"/>
                    </mxGeometry>
                </mxCell>
                <mxCell id="130" value="&amp;nbsp;Um produto que agrupa as suas variações relacionadas." style="text;html=1;strokeColor=none;fillColor=none;align=left;verticalAlign=middle;whiteSpace=wrap;rounded=0;fontSize=16;" parent="129" vertex="1">
                    <mxGeometry y="20" width="210" height="60" as="geometry"/>
                </mxCell>
                <mxCell id="131" value="Product Variation" style="swimlane;whiteSpace=wrap;html=1;strokeColor=default;fontSize=16;fillColor=default;" parent="1" vertex="1">
                    <mxGeometry x="-268.5" y="-610" width="205" height="200" as="geometry">
                        <mxRectangle x="80" y="-240" width="180" height="30" as="alternateBounds"/>
                    </mxGeometry>
                </mxCell>
                <mxCell id="132" value="&amp;nbsp;Um produto que representa a variação contida em;&lt;br&gt;&lt;b&gt;Product With_Variation&lt;/b&gt;" style="text;html=1;strokeColor=none;fillColor=none;align=left;verticalAlign=middle;whiteSpace=wrap;rounded=0;fontSize=16;" parent="131" vertex="1">
                    <mxGeometry y="30" width="200" height="60" as="geometry"/>
                </mxCell>
                <mxCell id="137" value="&lt;ol&gt;&lt;li&gt;E o Product Base com variação?&lt;/li&gt;&lt;li&gt;&lt;strong&gt;Bounded Contexts:&lt;/strong&gt;&amp;nbsp;Cada&amp;nbsp;&lt;strong&gt;Bounded Context&lt;/strong&gt;&amp;nbsp;é responsável por uma parte específica do&lt;br&gt;domínio de negócios e pode ter suas próprias regras e invariantes. Se as ações em um domínio afetarem outro, é importante definir cuidadosamente os limites entre esses contextos e estabelecer mecanismos claros de comunicação e integração entre eles, a fim de evitar problemas de design e acoplamento excessivo.&lt;/li&gt;&lt;/ol&gt;" style="rounded=0;whiteSpace=wrap;fillColor=#333C45;strokeColor=default;fontColor=#ffffff;align=left;verticalAlign=top;html=1;" parent="1" vertex="1">
                    <mxGeometry x="133" y="-760.6199999999999" width="640" height="140" as="geometry"/>
                </mxCell>
                <mxCell id="138" value="O que precisamos ter em mente" style="text;html=1;strokeColor=none;fillColor=none;align=center;verticalAlign=middle;whiteSpace=wrap;rounded=0;shadow=0;glass=0;labelBackgroundColor=none;sketch=0;fontSize=16;fontColor=#FFFFFF;fontStyle=1" parent="1" vertex="1">
                    <mxGeometry x="133" y="-800.6199999999999" width="250" height="40" as="geometry"/>
                </mxCell>
                <mxCell id="150" value="Product Base" style="swimlane;whiteSpace=wrap;html=1;strokeColor=default;fontSize=16;fillColor=default;" parent="1" vertex="1">
                    <mxGeometry x="10" y="-1380" width="200" height="200" as="geometry">
                        <mxRectangle x="80" y="-240" width="180" height="30" as="alternateBounds"/>
                    </mxGeometry>
                </mxCell>
                <mxCell id="151" value="Um produto único principal no sistema.&amp;nbsp;" style="text;html=1;strokeColor=none;fillColor=none;align=left;verticalAlign=middle;whiteSpace=wrap;rounded=0;fontSize=16;" parent="150" vertex="1">
                    <mxGeometry y="30" width="200" height="40" as="geometry"/>
                </mxCell>
                <mxCell id="152" value="Product Variation" style="swimlane;whiteSpace=wrap;html=1;strokeColor=default;fontSize=16;fillColor=default;" parent="1" vertex="1">
                    <mxGeometry x="250" y="-1380" width="210" height="200" as="geometry">
                        <mxRectangle x="80" y="-240" width="180" height="30" as="alternateBounds"/>
                    </mxGeometry>
                </mxCell>
                <mxCell id="153" value="Uma variação" style="text;html=1;strokeColor=none;fillColor=none;align=left;verticalAlign=middle;whiteSpace=wrap;rounded=0;fontSize=16;" parent="152" vertex="1">
                    <mxGeometry y="20" width="210" height="60" as="geometry"/>
                </mxCell>
                <mxCell id="169" value="&lt;ol&gt;&lt;li&gt;Product Base com variação&lt;/li&gt;&lt;li&gt;Product Base sem variação&lt;/li&gt;&lt;/ol&gt;" style="rounded=0;whiteSpace=wrap;fillColor=#333C45;strokeColor=default;fontColor=#ffffff;align=left;verticalAlign=top;html=1;" parent="1" vertex="1">
                    <mxGeometry x="73" y="-1020" width="290" height="80" as="geometry"/>
                </mxCell>
                <mxCell id="170" value="Basta apenas colocar um status" style="text;html=1;strokeColor=#BD7000;fillColor=#f0a30a;align=center;verticalAlign=middle;whiteSpace=wrap;rounded=0;fontColor=#000000;" parent="1" vertex="1">
                    <mxGeometry x="12.5" y="-1300" width="195" height="30" as="geometry"/>
                </mxCell>
                <mxCell id="174" value="Tela Produto" style="swimlane;whiteSpace=wrap;html=1;strokeColor=default;fontSize=16;fillColor=default;" parent="1" vertex="1">
                    <mxGeometry x="393" y="-1020" width="200" height="200" as="geometry">
                        <mxRectangle x="80" y="-240" width="180" height="30" as="alternateBounds"/>
                    </mxGeometry>
                </mxCell>
                <mxCell id="177" value="if status === produto.status x" style="text;html=1;align=center;verticalAlign=middle;resizable=0;points=[];autosize=1;strokeColor=none;fillColor=none;" parent="174" vertex="1">
                    <mxGeometry x="2.5" y="26.88000000000011" width="180" height="30" as="geometry"/>
                </mxCell>
                <mxCell id="176" value="Produto sem variação" style="text;html=1;strokeColor=#006EAF;fillColor=#1ba1e2;align=center;verticalAlign=middle;whiteSpace=wrap;rounded=0;fontColor=#ffffff;" parent="174" vertex="1">
                    <mxGeometry x="2.5" y="56.88000000000011" width="195" height="30" as="geometry"/>
                </mxCell>
                <mxCell id="178" value="else" style="text;html=1;align=center;verticalAlign=middle;resizable=0;points=[];autosize=1;strokeColor=none;fillColor=none;" parent="174" vertex="1">
                    <mxGeometry x="67.5" y="86.88000000000011" width="50" height="30" as="geometry"/>
                </mxCell>
                <mxCell id="179" value="Produto com variação" style="text;html=1;strokeColor=#006EAF;fillColor=#1ba1e2;align=center;verticalAlign=middle;whiteSpace=wrap;rounded=0;fontColor=#ffffff;" parent="174" vertex="1">
                    <mxGeometry y="116.88000000000011" width="195" height="30" as="geometry"/>
                </mxCell>
                <mxCell id="182" value="Product With_Variation" style="swimlane;whiteSpace=wrap;html=1;strokeColor=default;fontSize=16;fillColor=default;" parent="1" vertex="1">
                    <mxGeometry x="510" y="-1380" width="210" height="200" as="geometry">
                        <mxRectangle x="80" y="-240" width="180" height="30" as="alternateBounds"/>
                    </mxGeometry>
                </mxCell>
                <mxCell id="183" value="Uma variação" style="text;html=1;strokeColor=none;fillColor=none;align=left;verticalAlign=middle;whiteSpace=wrap;rounded=0;fontSize=16;" parent="182" vertex="1">
                    <mxGeometry y="20" width="210" height="60" as="geometry"/>
                </mxCell>
                <mxCell id="184" value="Product Base" style="swimlane;whiteSpace=wrap;html=1;strokeColor=default;fontSize=16;fillColor=default;" parent="1" vertex="1">
                    <mxGeometry x="-617" y="-1050" width="200" height="200" as="geometry">
                        <mxRectangle x="80" y="-240" width="180" height="30" as="alternateBounds"/>
                    </mxGeometry>
                </mxCell>
                <mxCell id="185" value="Um produto único principal no sistema.&amp;nbsp;" style="text;html=1;strokeColor=none;fillColor=none;align=left;verticalAlign=middle;whiteSpace=wrap;rounded=0;fontSize=16;" parent="184" vertex="1">
                    <mxGeometry y="30" width="200" height="40" as="geometry"/>
                </mxCell>
                <mxCell id="186" value="Product Variation" style="swimlane;whiteSpace=wrap;html=1;strokeColor=default;fontSize=16;fillColor=default;" parent="1" vertex="1">
                    <mxGeometry x="-377" y="-1050" width="210" height="200" as="geometry">
                        <mxRectangle x="80" y="-240" width="180" height="30" as="alternateBounds"/>
                    </mxGeometry>
                </mxCell>
                <mxCell id="187" value="Uma variação" style="text;html=1;strokeColor=none;fillColor=none;align=left;verticalAlign=middle;whiteSpace=wrap;rounded=0;fontSize=16;" parent="186" vertex="1">
                    <mxGeometry y="20" width="210" height="60" as="geometry"/>
                </mxCell>
                <mxCell id="188" value="Basta apenas colocar um status" style="text;html=1;strokeColor=#BD7000;fillColor=#f0a30a;align=center;verticalAlign=middle;whiteSpace=wrap;rounded=0;fontColor=#000000;" parent="1" vertex="1">
                    <mxGeometry x="-614.5" y="-970" width="195" height="30" as="geometry"/>
                </mxCell>
                <mxCell id="189" value="&lt;font style=&quot;font-size: 16px;&quot;&gt;Product Base Created&lt;br&gt;&lt;/font&gt;" style="whiteSpace=wrap;html=1;aspect=fixed;labelBackgroundColor=none;strokeColor=none;fontColor=#000000;fillColor=#FFB366;" vertex="1" parent="1">
                    <mxGeometry x="-551.5" y="-210" width="130" height="130" as="geometry"/>
                </mxCell>
                <mxCell id="190" value="&lt;font style=&quot;font-size: 16px;&quot;&gt;Product Base Edited&lt;br&gt;&lt;/font&gt;" style="whiteSpace=wrap;html=1;aspect=fixed;labelBackgroundColor=none;strokeColor=none;fontColor=#000000;fillColor=#FFB366;" vertex="1" parent="1">
                    <mxGeometry x="-381.5" y="-210" width="130" height="130" as="geometry"/>
                </mxCell>
                <mxCell id="191" value="&lt;font style=&quot;font-size: 20px;&quot;&gt;PRODUCT BASE&lt;/font&gt;" style="rounded=0;whiteSpace=wrap;html=1;fillColor=#f0a30a;fontColor=#000000;strokeColor=#BD7000;" vertex="1" parent="1">
                    <mxGeometry x="-786.5" y="-330" width="770" height="60" as="geometry"/>
                </mxCell>
                <mxCell id="192" value="User" style="whiteSpace=wrap;html=1;aspect=fixed;labelBackgroundColor=none;strokeColor=none;fontColor=#000000;fillColor=#FFFF66;fontStyle=0" vertex="1" parent="1">
                    <mxGeometry x="-476.5" y="-110" width="130" height="130" as="geometry"/>
                </mxCell>
            </root>
        </mxGraphModel>
    </diagram>
</mxfile>